<svg xmlns="http://www.w3.org/2000/svg" xmlns:xlink="http://www.w3.org/1999/xlink" width="500" zoomAndPan="magnify" viewBox="0 0 375 374.999991" height="500" preserveAspectRatio="xMidYMid meet" version="1.2"><defs><clipPath id="05a33ed535"><path d="M 12 78.621094 L 363 78.621094 L 363 296.121094 L 12 296.121094 Z M 12 78.621094 "/></clipPath></defs><g id="a840ae166f"><g clip-rule="nonzero" clip-path="url(#05a33ed535)"><path style=" stroke:none;fill-rule:nonzero;fill:#ffffff;fill-opacity:1;" d="M 359.296875 78.621094 L 15.28125 78.621094 C 13.546875 78.621094 12.25 79.921875 12.25 81.652344 L 12.25 102.882812 C 12.25 104.617188 13.546875 105.917969 15.28125 105.917969 L 26.546875 105.917969 L 26.546875 112.414062 C 26.546875 114.148438 27.847656 115.449219 29.578125 115.449219 L 48.644531 115.449219 L 23.511719 289.621094 C 23.082031 291.355469 24.378906 292.65625 26.113281 293.089844 L 45.175781 295.6875 C 46.910156 296.121094 48.210938 294.820312 48.644531 293.089844 L 74.640625 115.449219 L 101.066406 115.449219 L 80.273438 252.359375 C 80.273438 253.660156 81.136719 254.960938 82.4375 254.960938 L 97.601562 257.125 C 98.902344 257.125 100.203125 256.261719 100.203125 254.960938 L 120.566406 115.015625 L 253.578125 115.015625 L 273.941406 255.394531 C 273.941406 256.695312 275.242188 257.558594 276.542969 257.558594 L 291.707031 255.394531 C 293.003906 255.394531 293.871094 254.09375 293.871094 252.792969 L 273.941406 115.882812 L 300.371094 115.882812 L 326.367188 293.519531 C 326.800781 295.253906 328.101562 296.121094 329.832031 296.121094 L 348.898438 293.519531 C 350.628906 293.089844 351.496094 291.789062 351.496094 290.054688 L 325.933594 115.449219 L 344.996094 115.449219 C 346.730469 115.449219 348.03125 114.148438 348.03125 112.414062 L 348.03125 105.917969 L 359.296875 105.917969 C 361.027344 105.917969 362.328125 104.617188 362.328125 102.882812 L 362.328125 81.652344 C 362.328125 80.355469 361.027344 78.621094 359.296875 78.621094 Z M 359.296875 78.621094 "/></g></g></svg>